<svg width="64" height="64" viewBox="0 0 64 64" fill="none" xmlns="http://www.w3.org/2000/svg">
<rect x="0.5" y="0.5" width="63" height="63" rx="12.5" fill="white"/>
<rect x="0.5" y="0.5" width="63" height="63" rx="12.5" stroke="#B8D4B4"/>
<path d="M18 16H36C39.3137 16 42 18.6863 42 22V48C42 51.3137 39.3137 54 36 54H18C14.6863 54 12 51.3137 12 48V22C12 18.6863 14.6863 16 18 16Z" fill="#4A9B3E"/>
<path d="M42 22H46C48.2091 22 50 23.7909 50 26V44C50 46.2091 48.2091 48 46 48H42V22Z" fill="#E5A00D"/>
<path d="M22 16V24L24 22L26 24V16H22Z" fill="#C8960C"/>
<rect x="24" y="20" width="14" height="28" rx="2" fill="white"/>
<circle cx="31" cy="30" r="5" fill="#4A9B3E"/>
<path d="M25 42C25 37.5817 27.6863 35 31 35C34.3137 35 37 37.5817 37 42H25Z" fill="#4A9B3E"/>
<rect x="26" y="44" width="10" height="2" rx="1" fill="#E5A00D"/>
<rect x="26" y="48" width="7" height="2" rx="1" fill="#B8D4B4"/>
<circle cx="46" cy="38" r="9" fill="#E5A00D"/>
<path d="M43.5 38L45.5 40L49 36.5" stroke="white" stroke-width="2" stroke-linecap="round" stroke-linejoin="round"/>
</svg>
