<svg width="64" height="64" viewBox="0 0 64 64" fill="none" xmlns="http://www.w3.org/2000/svg">
<rect x="0.5" y="0.5" width="63" height="63" rx="12.5" fill="white"/>
<rect x="0.5" y="0.5" width="63" height="63" rx="12.5" stroke="#B8D4B4"/>
<path d="M28 14H22C19.7909 14 18 15.7909 18 18V24C18 26.2091 19.7909 28 22 28H28C30.2091 28 32 26.2091 32 24V18C32 15.7909 30.2091 14 28 14Z" fill="#4A9B3E"/>
<path d="M42 14H36C33.7909 14 32 15.7909 32 18V24C32 26.2091 33.7909 28 36 28H42C44.2091 28 46 26.2091 46 24V18C46 15.7909 44.2091 14 42 14Z" fill="#E5A00D"/>
<path d="M28 36H22C19.7909 36 18 37.7909 18 40V46C18 48.2091 19.7909 50 22 50H28C30.2091 50 32 48.2091 32 46V40C32 37.7909 30.2091 36 28 36Z" fill="#E5A00D"/>
<path d="M42 36H36C33.7909 36 32 37.7909 32 40V46C32 48.2091 33.7909 50 36 50H42C44.2091 50 46 48.2091 46 46V40C46 37.7909 44.2091 36 42 36Z" fill="#4A9B3E"/>
<circle cx="46" cy="18" r="6" fill="#C8960C"/>
<path d="M44 16.5L46 18.5L49 15.5" stroke="white" stroke-width="1.5" stroke-linecap="round" stroke-linejoin="round"/>
</svg>
