<svg width="64" height="64" viewBox="0 0 64 64" fill="none" xmlns="http://www.w3.org/2000/svg">
<rect x="0.5" y="0.5" width="63" height="63" rx="12.5" fill="white"/>
<rect x="0.5" y="0.5" width="63" height="63" rx="12.5" stroke="#B8D4B4"/>
<path d="M18 22H46V42C46 44.2091 44.2091 46 42 46H22C19.7909 46 18 44.2091 18 42V22Z" fill="#4A9B3E"/>
<path d="M22 18H42C43.1046 18 44 18.8954 44 20V22H20V20C20 18.8954 20.8954 18 22 18Z" fill="#E5A00D"/>
<rect x="26" y="28" width="12" height="3" rx="1.5" fill="white"/>
<rect x="26" y="35" width="8" height="3" rx="1.5" fill="white" fill-opacity="0.7"/>
<circle cx="46" cy="20" r="8" fill="#C8960C"/>
<path d="M43 20H49M46 17V23" stroke="white" stroke-width="2" stroke-linecap="round"/>
</svg>
