<svg width="64" height="64" viewBox="0 0 64 64" fill="none" xmlns="http://www.w3.org/2000/svg">
<rect x="0.5" y="0.5" width="63" height="63" rx="12.5" fill="white"/>
<rect x="0.5" y="0.5" width="63" height="63" rx="12.5" stroke="#B8D4B4"/>
<path d="M14 24H50V48C50 50.2091 48.2091 52 46 52H18C15.7909 52 14 50.2091 14 48V24Z" fill="#4A9B3E"/>
<path d="M18 20H46C47.1046 20 48 20.8954 48 22V24H16V22C16 20.8954 16.8954 20 18 20Z" fill="#E5A00D"/>
<rect x="20" y="30" width="24" height="3" rx="1.5" fill="white"/>
<rect x="20" y="37" width="18" height="3" rx="1.5" fill="white" fill-opacity="0.8"/>
<rect x="20" y="44" width="20" height="3" rx="1.5" fill="white" fill-opacity="0.6"/>
<circle cx="44" cy="40" r="9" fill="#C8960C"/>
<rect x="41" y="36" width="6" height="8" rx="1" fill="white"/>
<path d="M44 44V48" stroke="white" stroke-width="2" stroke-linecap="round"/>
</svg>
