<svg width="64" height="64" viewBox="0 0 64 64" fill="none" xmlns="http://www.w3.org/2000/svg">
<rect x="0.5" y="0.5" width="63" height="63" rx="12.5" fill="white"/>
<rect x="0.5" y="0.5" width="63" height="63" rx="12.5" stroke="#DCE0E5"/>
<path d="M16 18H40C41.6569 18 43 19.3431 43 21V46C43 47.6569 41.6569 49 40 49H20C18.3431 49 17 47.6569 17 46V22L16 18Z" fill="#0070F2"/>
<path d="M17 22H43V46C43 47.6569 41.6569 49 40 49H20C18.3431 49 17 47.6569 17 46V22Z" fill="white"/>
<rect x="21" y="26" width="18" height="3" rx="1.5" fill="#0070F2" fill-opacity="0.35"/>
<rect x="21" y="33" width="14" height="3" rx="1.5" fill="#0070F2" fill-opacity="0.25"/>
<rect x="21" y="40" width="16" height="3" rx="1.5" fill="#0070F2" fill-opacity="0.25"/>
<path d="M44 38L52 30V50L44 42V38Z" fill="#FDB421"/>
<path d="M46 40L50 36" stroke="#FC5B1C" stroke-width="2" stroke-linecap="round"/>
</svg>
